<?xml version="1.0" encoding="UTF-8" standalone="no"?>
<!DOCTYPE svg PUBLIC "-//W3C//DTD SVG 1.1//EN" "http://www.w3.org/Graphics/SVG/1.1/DTD/svg11.dtd">
<svg width="100%" height="100%" viewBox="0 0 487 125" version="1.1" xmlns="http://www.w3.org/2000/svg" xmlns:xlink="http://www.w3.org/1999/xlink" xml:space="preserve" xmlns:serif="http://www.serif.com/" style="fill-rule:evenodd;clip-rule:evenodd;stroke-linejoin:round;stroke-miterlimit:2;">
    <g transform="matrix(0.366936,0,0,0.366936,-244.022652,-489.681833)">
        <path d="M739.192,1603.849C725.826,1603.849 713.702,1601.661 702.82,1597.284C691.937,1592.907 683.125,1586.254 676.383,1577.324C669.641,1568.393 665.856,1557.126 665.028,1543.524L694.835,1543.524C696.964,1566.471 711.513,1577.945 738.482,1577.945C751.494,1577.945 761.755,1575.224 769.266,1569.783C776.777,1564.342 780.532,1557.481 780.532,1549.201C780.532,1542.104 777.93,1536.427 772.726,1532.168C767.521,1527.91 760.72,1524.835 752.322,1522.942L722.159,1515.845C686.91,1507.565 669.286,1489.823 669.286,1462.617C669.286,1451.972 672.154,1442.539 677.891,1434.318C683.628,1426.097 691.612,1419.651 701.844,1414.978C712.075,1410.306 723.874,1407.97 737.24,1407.97C750.252,1407.97 761.932,1410.424 772.282,1415.333C782.632,1420.242 790.853,1427.191 796.944,1436.181C803.036,1445.17 806.259,1455.875 806.614,1468.295L777.161,1468.295C777.043,1458.359 773.376,1450.138 766.161,1443.633C758.945,1437.127 749.305,1433.874 737.24,1433.874C725.767,1433.874 716.6,1436.654 709.739,1442.213C702.879,1447.773 699.448,1454.574 699.448,1462.617C699.448,1469.714 702.051,1475.422 707.255,1479.739C712.46,1484.056 719.557,1487.28 728.546,1489.409L758.709,1496.506C776.688,1500.764 789.877,1507.122 798.275,1515.579C806.673,1524.036 810.872,1535.007 810.872,1548.492C810.872,1560.084 807.738,1570.019 801.469,1578.299C795.2,1586.579 786.654,1592.907 775.831,1597.284C765.008,1601.661 752.795,1603.849 739.192,1603.849Z" style="fill-rule:nonzero;"/>
        <path d="M912.814,1603.849C894.48,1603.849 878.837,1599.65 865.885,1591.252C852.933,1582.853 843.027,1571.291 836.166,1556.565C829.306,1541.838 825.875,1525.071 825.875,1506.264C825.875,1487.22 829.483,1470.306 836.698,1455.52C843.914,1440.735 853.909,1429.113 866.684,1420.656C879.458,1412.199 894.125,1407.97 910.685,1407.97C928.073,1407.97 943.154,1412.11 955.929,1420.39C968.704,1428.67 978.551,1440.202 985.471,1454.988C992.39,1469.774 995.85,1486.866 995.85,1506.264L995.85,1514.603L855.683,1514.603C856.393,1532.937 861.656,1547.841 871.474,1559.315C881.292,1570.788 895.072,1576.525 912.814,1576.525C926.181,1576.525 937.092,1573.45 945.55,1567.299C954.007,1561.148 959.655,1553.223 962.494,1543.524L992.656,1543.524C990.291,1555.471 985.382,1565.968 977.93,1575.017C970.478,1584.066 961.163,1591.133 949.985,1596.219C938.807,1601.306 926.417,1603.849 912.814,1603.849ZM856.038,1488.699L965.688,1488.699C964.032,1472.257 958.295,1459.187 948.477,1449.488C938.66,1439.788 926.062,1434.939 910.685,1434.939C895.308,1434.939 882.77,1439.788 873.071,1449.488C863.372,1459.187 857.694,1472.257 856.038,1488.699Z" style="fill-rule:nonzero;"/>
        <path d="M1078.275,1602.429C1059.705,1602.429 1044.18,1597.639 1031.701,1588.058C1019.222,1578.477 1012.982,1564.342 1012.982,1545.653C1012.982,1534.889 1015.082,1526.136 1019.281,1519.394C1023.48,1512.652 1029.099,1507.358 1036.136,1503.514C1043.174,1499.67 1051.159,1496.742 1060.089,1494.732C1069.019,1492.721 1078.157,1491.124 1087.501,1489.941C1099.448,1488.285 1108.852,1487.043 1115.712,1486.215C1122.573,1485.387 1127.452,1484.027 1130.35,1482.134C1133.248,1480.242 1134.697,1476.93 1134.697,1472.198L1134.697,1470.424C1134.697,1460.252 1131.06,1451.853 1123.785,1445.23C1116.511,1438.606 1106.309,1435.294 1093.179,1435.294C1080.168,1435.294 1069.493,1438.458 1061.154,1444.786C1052.815,1451.114 1048.29,1458.951 1047.58,1468.295L1016.886,1468.295C1017.477,1456.821 1021.026,1446.619 1027.531,1437.689C1034.037,1428.758 1042.908,1421.691 1054.145,1416.486C1065.382,1411.282 1078.394,1408.68 1093.179,1408.68C1115.062,1408.68 1132.42,1414.328 1145.254,1425.624C1158.088,1436.92 1164.504,1451.853 1164.504,1470.424L1164.504,1599.591L1134.697,1599.591L1134.697,1572.977L1133.987,1572.977C1131.74,1577.471 1128.428,1581.996 1124.051,1586.55C1119.675,1591.104 1113.79,1594.889 1106.397,1597.905C1099.005,1600.921 1089.631,1602.429 1078.275,1602.429ZM1082.533,1575.461C1094.835,1575.461 1104.83,1573.243 1112.519,1568.807C1120.207,1564.371 1125.826,1558.605 1129.374,1551.508C1132.923,1544.411 1134.697,1536.782 1134.697,1528.62L1134.697,1505.2C1132.449,1507.329 1126.476,1509.251 1116.777,1510.966C1107.077,1512.681 1096.846,1514.308 1086.082,1515.845C1078.867,1516.792 1072.036,1518.418 1065.589,1520.724C1059.143,1523.031 1053.909,1526.284 1049.887,1530.483C1045.865,1534.682 1043.855,1540.33 1043.855,1547.427C1043.855,1556.18 1047.314,1563.041 1054.234,1568.009C1061.154,1572.977 1070.587,1575.461 1082.533,1575.461Z" style="fill-rule:nonzero;"/>
        <path d="M1198.315,1599.591L1198.315,1412.228L1227.058,1412.228L1227.058,1441.681L1227.768,1441.681C1231.198,1431.982 1236.639,1424.175 1244.091,1418.261C1251.543,1412.346 1261.124,1409.389 1272.834,1409.389C1275.555,1409.389 1278.068,1409.508 1280.375,1409.744C1282.681,1409.981 1284.426,1410.217 1285.609,1410.454L1285.609,1440.616C1284.426,1440.262 1282.149,1439.818 1278.778,1439.286C1275.407,1438.753 1271.533,1438.487 1267.156,1438.487C1256.747,1438.487 1247.699,1442.154 1240.01,1449.488C1232.322,1456.821 1228.477,1468.413 1228.477,1484.263L1228.477,1599.591L1198.315,1599.591Z" style="fill-rule:nonzero;"/>
        <path d="M1378.325,1603.849C1361.055,1603.849 1345.885,1599.679 1332.815,1591.34C1319.744,1583.001 1309.572,1571.498 1302.297,1556.831C1295.023,1542.164 1291.386,1525.308 1291.386,1506.264C1291.386,1487.102 1295.023,1470.128 1302.297,1455.343C1309.572,1440.557 1319.744,1428.965 1332.815,1420.567C1345.885,1412.169 1361.055,1407.97 1378.325,1407.97C1392.519,1407.97 1405.234,1410.779 1416.471,1416.398C1427.708,1422.016 1436.905,1429.734 1444.061,1439.552C1451.217,1449.369 1455.623,1460.606 1457.279,1473.263L1426.762,1473.263C1424.515,1462.262 1419.34,1453.184 1411.237,1446.028C1403.135,1438.872 1392.164,1435.294 1378.325,1435.294C1360.7,1435.294 1346.891,1441.74 1336.896,1454.633C1326.901,1467.526 1321.903,1484.736 1321.903,1506.264C1321.903,1527.555 1326.871,1544.588 1336.807,1557.363C1346.743,1570.138 1360.582,1576.525 1378.325,1576.525C1392.401,1576.525 1403.164,1573.065 1410.616,1566.146C1418.068,1559.226 1423.273,1550.029 1426.23,1538.556L1457.279,1538.556C1455.623,1550.857 1451.217,1561.947 1444.061,1571.823C1436.905,1581.7 1427.679,1589.507 1416.383,1595.244C1405.086,1600.98 1392.401,1603.849 1378.325,1603.849Z" style="fill-rule:nonzero;"/>
        <path d="M1510.252,1489.941L1510.252,1599.591L1480.089,1599.591L1480.089,1335.225L1510.252,1335.225L1510.252,1438.487C1516.758,1428.315 1524.653,1420.804 1533.938,1415.954C1543.224,1411.105 1553.662,1408.68 1565.254,1408.68C1577.911,1408.68 1589.443,1411.43 1599.852,1416.93C1610.261,1422.43 1618.571,1430.681 1624.781,1441.681C1630.991,1452.681 1634.096,1466.521 1634.096,1483.199L1634.096,1599.591L1603.933,1599.591L1603.933,1485.328C1603.933,1469.123 1600.059,1456.91 1592.312,1448.689C1584.564,1440.469 1573.652,1436.358 1559.576,1436.358C1545.974,1436.358 1534.352,1440.557 1524.712,1448.955C1515.072,1457.354 1510.252,1471.016 1510.252,1489.941Z" style="fill-rule:nonzero;"/>
        <path d="M1667.906,1599.591L1667.906,1412.228L1698.068,1412.228L1698.068,1599.591L1667.906,1599.591ZM1682.987,1375.678C1677.31,1375.678 1672.46,1373.668 1668.438,1369.646C1664.417,1365.624 1662.406,1360.775 1662.406,1355.097C1662.406,1349.419 1664.417,1344.57 1668.438,1340.548C1672.46,1336.526 1677.31,1334.515 1682.987,1334.515C1688.665,1334.515 1693.514,1336.526 1697.536,1340.548C1701.558,1344.57 1703.569,1349.419 1703.569,1355.097C1703.569,1360.775 1701.558,1365.624 1697.536,1369.646C1693.514,1373.668 1688.665,1375.678 1682.987,1375.678Z" style="fill-rule:nonzero;"/>
        <path d="M1813.672,1412.228L1813.672,1438.132L1775.703,1438.132L1775.703,1599.591L1745.541,1599.591L1745.541,1438.132L1712.184,1438.132L1712.184,1412.228L1745.541,1412.228L1745.541,1378.872C1745.541,1365.506 1749.976,1354.89 1758.848,1347.024C1767.719,1339.158 1779.725,1335.225 1794.865,1335.225L1813.672,1335.225L1813.672,1361.129L1797.704,1361.129C1789.779,1361.129 1784.131,1362.845 1780.76,1366.275C1777.389,1369.705 1775.703,1375.442 1775.703,1383.485L1775.703,1412.228L1813.672,1412.228Z" style="fill-rule:nonzero;"/>
        <path d="M1835.418,1673.755L1835.418,1647.141L1853.87,1647.141C1864.989,1647.141 1873.446,1639.63 1879.242,1624.608L1889.533,1597.994L1816.965,1412.228L1849.612,1412.228L1890.065,1520.103C1892.667,1527.082 1895.24,1534.091 1897.783,1541.129C1900.326,1548.166 1902.781,1555.175 1905.146,1562.154C1907.63,1555.175 1910.144,1548.166 1912.687,1541.129C1915.23,1534.091 1917.803,1527.082 1920.405,1520.103L1960.149,1412.228L1992.263,1412.228L1905.856,1634.366C1901.006,1646.904 1894.087,1656.604 1885.097,1663.464C1876.108,1670.325 1865.699,1673.755 1853.87,1673.755L1835.418,1673.755Z" style="fill-rule:nonzero;"/>
    </g>
</svg>
